<?xml version="1.0" encoding="utf-8"?>
<?xml-stylesheet type="text/xsl" href="rss1.xsl"?>
<rss version="2.0" xmlns:atom="http://www.w3.org/2005/Atom" xmlns:content="http://purl.org/rss/1.0/modules/content/" xmlns:dc="http://purl.org/dc/elements/1.1/" xmlns:media="http://search.yahoo.com/mrss/">
<channel>
 <title>Getty</title>
 <link>http://www.gettyimg.com/</link>
 <atom:link href="http://www.gettyimg.com/" rel="self" type="application/rss+xml" />

 
                <item>
                <title><![CDATA[【Apple Music】WEB-RiP - 21 Savage - redrum [Apple HD Music Video]]]></title>
                <link><![CDATA[https://sharemania.us/threads/21-savage-redrum-apple-hd-music-video.242418/]]></link>
                <description><![CDATA[<article>
<blockquote class="messageText SelectQuoteContainer ugc baseHtml">
<span style="font-size: 22px"><b>21 Savage - redrum [Apple HD Music Video]</b></span><br>
<br>
<img src="https://imgur.com/EMb6L0u.jpg" class="bbCodeImage LbImage" alt="[​IMG]" data-url="https://imgur.com/EMb6L0u.jpg" style=""><br>
<br>
<div class="bbCodeBlock bbCodeCode">
<div class="type">Code:</div>
<pre>General
Format                         : MPEG-4
Codec ID                       : M4V  (isom/iso4/M4V /mp42)
File size                      : 321 MiB
Duration                       : 4 min 25 s
Overall bit rate mode          : Variable
Overall bit rate               : 10.1 Mb/s
Movie name                     : redrum
Performer                      : 21 Savage
Genre                          : Hip-Hop/Rap
ContentType                    : Music Video
Recorded date                  : UTC 2024-01-17 08:00:00
Encoded date                   : UTC 2024-03-12 17:50:42
Tagged date                    : UTC 2024-03-12 17:50:42
Copyright                      : ℗ (C) 2024 Slaughter Gang, LLC under exclusive license to Epic Records, a division of Sony Music Entertainment
Cover                          : Yes
Rating                         : Explicit
GenreID                        : 1618
AppleStoreCountry              : Canada
AlbumTitleID                   : 894820464
AppleStoreCatalogID            : 1726276331

Video
ID                             : 2
Format                         : AVC
Format/Info                    : Advanced Video Codec
Format profile                 : High@L4
Format settings                : CABAC / 4 Ref Frames
Format settings, CABAC         : Yes
Format settings, Reference fra : 4 frames
Codec ID                       : avc1
Codec ID/Info                  : Advanced Video Coding
Duration                       : 4 min 25 s
Bit rate                       : 9 853 kb/s
Maximum bit rate               : 21.4 Mb/s
Width                          : 1 552 pixels
Height                         : 1 080 pixels
Display aspect ratio           : 1.437
Frame rate mode                : Constant
Frame rate                     : 25.000 FPS
Color space                    : YUV
Chroma subsampling             : 4:2:0
Bit depth                      : 8 bits
Scan type                      : Progressive
Bits/(Pixel*Frame)             : 0.235
Stream size                    : 312 MiB (97%)
Title                          : Core Media Video
Encoded date                   : UTC 2024-02-17 21:03:40
Tagged date                    : UTC 2024-03-12 17:50:52
Color range                    : Limited
Color primaries                : BT.709
Transfer characteristics       : BT.709
Matrix coefficients            : BT.709
Codec configuration box        : avcC

Audio
ID                             : 1
Format                         : AAC LC
Format/Info                    : Advanced Audio Codec Low Complexity
Codec ID                       : mp4a-40-2
Duration                       : 4 min 25 s
Duration_LastFrame             : -17 ms
Bit rate mode                  : Variable
Bit rate                       : 265 kb/s
Maximum bit rate               : 314 kb/s
Channel(s)                     : 2 channels
Channel layout                 : L R
Sampling rate                  : 48.0 kHz
Frame rate                     : 46.875 FPS (1024 SPF)
Compression mode               : Lossy
Stream size                    : 8.41 MiB (3%)
Title                          : Core Media Audio
Encoded date                   : UTC 2024-02-17 21:03:27
Tagged date                    : UTC 2024-03-12 17:50:52
</pre>
</div>
<div class="bbCodeBlock bbCodeVfcHH HiddenContent">
<div class="attribution type">Hidden Content:</div>
<blockquote>You must reply before you can see the hidden data contained here.</blockquote>
</div>
<div class="messageTextEndMarker">&nbsp;</div>
</blockquote>
</article>]]></description>
                <author><![CDATA[abby0511]]></author>
                </item>

                </channel></rss>